<?xml version="1.0" encoding="UTF-8" standalone="no"?>
<svg width="800" height="600" viewBox="0 0 800 600" xmlns="http://www.w3.org/2000/svg">
  <defs>
    <pattern id="mandala-pattern" patternUnits="userSpaceOnUse" width="100" height="100">
      <circle cx="50" cy="50" r="40" fill="none" stroke="#b45309" stroke-width="1" opacity="0.2"/>
      <circle cx="50" cy="50" r="30" fill="none" stroke="#b45309" stroke-width="1" opacity="0.2"/>
      <circle cx="50" cy="50" r="20" fill="none" stroke="#b45309" stroke-width="1" opacity="0.2"/>
      <circle cx="50" cy="50" r="10" fill="none" stroke="#b45309" stroke-width="1" opacity="0.2"/>
      <path d="M 50 10 L 50 90 M 10 50 L 90 50" stroke="#b45309" stroke-width="1" opacity="0.2"/>
      <path d="M 22 22 L 78 78 M 22 78 L 78 22" stroke="#b45309" stroke-width="1" opacity="0.2"/>
    </pattern>
  </defs>
  <rect width="100%" height="100%" fill="#fffbeb"/>
  <rect width="100%" height="100%" fill="url(#mandala-pattern)"/>
  
  <!-- Decorative elements -->
  <g opacity="0.1">
    <circle cx="150" cy="150" r="100" fill="none" stroke="#b45309" stroke-width="2"/>
    <circle cx="150" cy="150" r="80" fill="none" stroke="#b45309" stroke-width="2"/>
    <circle cx="150" cy="150" r="60" fill="none" stroke="#b45309" stroke-width="2"/>
    <path d="M 150 50 L 150 250 M 50 150 L 250 150" stroke="#b45309" stroke-width="2"/>
    <path d="M 80 80 L 220 220 M 80 220 L 220 80" stroke="#b45309" stroke-width="2"/>
    
    <circle cx="650" cy="450" r="100" fill="none" stroke="#b45309" stroke-width="2"/>
    <circle cx="650" cy="450" r="80" fill="none" stroke="#b45309" stroke-width="2"/>
    <circle cx="650" cy="450" r="60" fill="none" stroke="#b45309" stroke-width="2"/>
    <path d="M 650 350 L 650 550 M 550 450 L 750 450" stroke="#b45309" stroke-width="2"/>
    <path d="M 580 380 L 720 520 M 580 520 L 720 380" stroke="#b45309" stroke-width="2"/>
  </g>
</svg>
